<?xml version="1.0" encoding="utf-8"?>
<!-- Generator: Adobe Illustrator 26.0.1, SVG Export Plug-In . SVG Version: 6.00 Build 0)  -->
<svg version="1.1" id="Layer_1" xmlns="http://www.w3.org/2000/svg" xmlns:xlink="http://www.w3.org/1999/xlink" x="0px" y="0px"
	 viewBox="0 0 1000 353.7" style="enable-background:new 0 0 1000 353.7;" xml:space="preserve">
<path d="M728.1,162h-6.3v-49.3h6.3V162z M413.2,288.1l16.7,49.3h-6.6l-4.7-15h-18l-4.7,15h-6.4l16.7-49.3L413.2,288.1z M414.6,309.9
	c-1.8-5.5-3.4-10.9-5-16.6h-0.3c-1.5,5.7-3.1,11.1-4.9,16.6l-2.3,7.5H417L414.6,309.9z M425.2,229.5c0,11.7-5.2,15.6-11.7,15.6
	c-6.6,0-11.5-3.7-11.5-15.6v-29.2h-6.3v29c0,15.8,7.7,21.3,17.7,21.3c10.1,0,17.7-5.4,17.7-21.3v-29h-6L425.2,229.5z M690.6,162h6.3
	v-44h14.9v-5.3h-36.2v5.3h14.9L690.6,162z M718.1,249.6v-44h15v-5.3h-36.2v5.3h15v44H718.1z M537.2,156.7h-23v-18H533v-5.3h-18.8
	v-15.5h22.2v-5.3H508v49.3h29.2V156.7z M799.7,136.2c0-5.2-0.5-10.4-0.8-15.4h0.3l5.3,10.2l17.9,31.1h6.5v-49.3h-6v25.5
	c0,5.2,0.5,10.7,0.8,15.7h-0.3l-5.3-10.2l-17.9-31h-6.5v49.3h6V136.2z M470.2,302.6c0,10.4-7.4,15.3-18.2,15.3h-8.1v19.6h-6.3v-49.3
	h14.1C462.8,288.1,470.2,291.9,470.2,302.6z M464,302.6c0-7-4.4-9.4-13.1-9.4h-7v19.6h7.3C459.8,312.8,464,309.6,464,302.6z
	 M474.7,225.9c0,5.2,0.5,10.7,0.8,15.7h-0.3l-5.3-10.2L452,200.3h-6.5v49.3h6v-25.8c0-5.2-0.5-10.4-0.8-15.4h0.3l5.3,10.2l18,31h6.5
	v-49.3h-6L474.7,225.9z M913.1,156.7h-21.6v-44.1h-6.3v49.3h27.8V156.7z M529.1,243.4h-0.3c-1.8-5.8-3-10.5-4.7-16.4l-8-26.6h-6.6
	l15.8,49.3h7.3l15.7-49.3h-6.4l-7.9,26.7C532.2,232.8,531,237.6,529.1,243.4z M598.7,136.2c0-5.2-0.5-10.4-0.8-15.4h0.3l5.2,10.2
	l17.9,31.1h6.5v-49.3h-6v25.5c0,5.2,0.5,10.7,0.8,15.7h-0.3l-5.3-10.2l-17.8-31h-6.5v49.3h6V136.2z M495.4,249.6h6.3v-49.3h-6.3
	V249.6z M476.8,162h6.3v-44h15v-5.3h-36.2v5.3h15L476.8,162z M422.8,136.2c0-5.2-0.5-10.4-0.8-15.4h0.3l5.3,10.2l17.9,31.1h6.5
	v-49.3h-5.9v25.5c0,5.2,0.5,10.7,0.8,15.7h-0.3l-5.3-10.2l-17.9-31h-6.5v49.3h6L422.8,136.2z M38.6,10.1C16.2,10.1,0,24.5,0,45
	s16.2,34.8,38.6,34.8S77.1,65.2,77.1,45S60.9,10.1,38.6,10.1z M513.9,302.6c0,10.4-7.4,15.3-18.2,15.3h-8.1v19.6h-6.3v-49.3h14.1
	C506.5,288.1,513.9,291.9,513.9,302.6z M507.7,302.6c0-7-4.4-9.4-13.1-9.4h-7v19.6h7.3C503.5,312.8,507.7,309.6,507.7,302.6z
	 M5.2,337.5h66.6V112.6H5.2V337.5z M402.2,112.6h-6.3v49.3h6.3V112.6z M262.6,261.4c-13,17.7-23.2,24.7-39.9,24.7
	c-19.2,0-27.9-10.1-27.9-42.5v-131h-66.6v139.6c0,56.2,20.8,90.7,69.7,90.7c30.5,0,51.8-14.2,70.6-36.6h1.6l4.7,31.2h54.4V112.6
	h-66.5V261.4z M833.5,224.9c0,15.8-8.7,25.8-21.1,25.8c-12.4,0-21.1-10-21.1-25.8s8.7-25.4,21.1-25.4
	C824.8,199.4,833.5,209.1,833.5,224.9z M827,224.9c0-12.3-5.8-19.9-14.6-19.9s-14.6,7.6-14.6,19.9c0,12.3,5.8,20.2,14.6,20.2
	S827,237.2,827,224.9L827,224.9z M800.4,314.2h18.8v-5.3h-18.8v-15.5h22.2v-5.3h-28.5v49.3h29.2v-5.3h-22.9V314.2z M864.1,313.6
	c0,5.2,0.5,10.7,0.8,15.7h-0.3l-5.3-10.2l-17.9-31h-6.6v49.3h6v-25.8c0-5.2-0.5-10.4-0.8-15.4h0.3l5.3,10.2l17.9,31.1h6.5v-49.3h-6
	L864.1,313.6z M531.3,288.1H525v49.3h27.8v-5.3h-21.6V288.1z M773.1,337.4h6.4v-49.3h-6.3L773.1,337.4z M860.6,112.5l16.7,49.3h-6.6
	l-4.7-15h-18l-4.7,15H837l16.7-49.3H860.6z M862.1,134.3c-1.8-5.5-3.4-10.9-5-16.6h-0.2c-1.5,5.7-3.1,11.1-4.9,16.6l-2.3,7.5h14.9
	L862.1,134.3z M845.2,249.6h6.3v-22h18.8v-5.3h-18.8v-16.7h22.2v-5.3h-28.5V249.6z M989.8,311l-7-3c-3.9-1.6-8.2-3.4-8.2-8.2
	s3.7-7.2,9.2-7.2c4.2,0,8.2,1.7,11.2,4.7l3.3-4c-3.8-3.9-9.1-6.1-14.6-6.1c-9,0-15.6,5.6-15.6,13.1c0,7.5,5.4,10.8,10,12.7l7,3.1
	c4.7,2,8.2,3.6,8.2,8.7s-3.8,8-10.3,8c-5.2-0.1-10.1-2.3-13.6-6.1l-3.8,4.3c4.5,4.7,10.8,7.4,17.3,7.3c10.4,0,16.8-6.2,16.8-14.1
	C1000,317,995.5,313.6,989.8,311L989.8,311z M935,314.1h18.8v-5.3H935v-15.5h22.2V288h-28.4v49.3h29.2V332H935L935,314.1z
	 M758.2,214.4c-1.5,3.6-3.2,7-4.9,10.8h-0.3c-1.7-3.7-3.2-7-4.7-10.8l-6.3-14.1h-6.8l14.8,30.2v19.1h6.3v-19l14.8-30.3h-6.5
	L758.2,214.4z M903.6,332.9c-9.4,0-15.3-7.8-15.3-20.2c0-12.4,6.2-19.9,15.5-19.9c3.9,0.1,7.5,1.8,10,4.7l3.5-4.1
	c-3.5-3.9-8.4-6.1-13.6-6.1c-12.5,0-21.9,9.7-21.9,25.6s9.2,25.5,21.5,25.5c5.9,0.1,11.5-2.5,15.1-7l-3.4-3.9
	c-2.8,3.4-7,5.3-11.5,5.3L903.6,332.9z M782,137.1c0,15.8-8.7,25.8-21.1,25.8c-12.4,0-21.1-10-21.1-25.8s8.7-25.4,21.1-25.4
	C773.3,111.7,782,121.3,782,137.1z M775.5,137.1c0-12.3-5.8-19.9-14.6-19.9c-8.8,0-14.6,7.6-14.6,19.9s5.8,20.3,14.6,20.3
	C769.8,157.4,775.5,149.4,775.5,137.1z M562.7,337.5h6.3v-49.3h-6.3V337.5z M748.1,332.8c-9.4,0-15.3-7.8-15.3-20.2
	c0-12.4,6.2-19.9,15.5-19.9c3.9,0,7.5,1.8,10,4.7l3.5-4.1c-3.5-3.9-8.4-6.1-13.6-6.1c-12.5,0-21.9,9.7-21.9,25.6s9.2,25.5,21.5,25.5
	c5.9,0.1,11.5-2.5,15.1-7l-3.5-3.9C756.8,330.8,752.5,332.8,748.1,332.8L748.1,332.8z M589.9,314.1h18.8v-5.3h-18.8v-15.5h22.2V288
	h-28.5v49.3h29.2V332h-22.9L589.9,314.1z M585,244.3h-22.9v-17.9h18.8v-5.3h-18.8v-15.5h22.2v-5.3h-28.5v49.3H585L585,244.3z
	 M563.9,141H555v20.9h-6.3v-49.3h15.4c10.1,0,17.3,3.6,17.3,13.9c0.4,6.8-4.4,12.8-11.1,13.9l12.6,21.6h-7L563.9,141z M563.3,135.9
	c7.7,0,11.9-3.1,11.9-9.4s-4.2-8.8-11.9-8.8H555v18.3L563.3,135.9z M630.7,249.6h-7l-11.9-20.9h-8.9v20.9h-6.3v-49.3H612
	c10.1,0,17.3,3.6,17.3,13.9c0.3,6.8-4.4,12.7-11.1,13.9L630.7,249.6z M623,214.1c0-6.5-4.2-8.8-11.9-8.8h-8.3v18.5h8.3
	C618.7,223.8,623,220.6,623,214.1L623,214.1z M686.9,200.3h-6.3v49.3h6.3V200.3z M708.2,311.1l-7-3c-3.9-1.6-8.2-3.4-8.2-8.2
	c0-4.7,3.7-7.2,9.2-7.2c4.2,0,8.2,1.7,11.2,4.7l3.3-4c-3.8-3.9-9.1-6.1-14.5-6.1c-9,0-15.5,5.6-15.5,13.1c0,7.5,5.4,10.8,10,12.7
	l7,3.1c4.7,2,8.2,3.6,8.2,8.7s-3.9,8-10.3,8c-5.2-0.1-10.1-2.3-13.6-6.1l-3.8,4.3c4.5,4.7,10.8,7.4,17.3,7.3
	c10.4,0,16.8-6.2,16.8-14.1C718.4,317,713.9,313.6,708.2,311.1L708.2,311.1z M659.7,223.4l-7-3.1c-3.9-1.6-8.2-3.4-8.2-8.2
	c0-4.7,3.6-7.2,9.2-7.2c4.2,0,8.2,1.7,11.2,4.7l3.3-4c-3.8-3.9-9.1-6.1-14.5-6.1c-9,0-15.5,5.6-15.5,13.1c0,7.6,5.4,10.8,10,12.7
	l7,3.1c4.7,2,8.2,3.7,8.2,8.7c0,5-3.9,8-10.3,8c-5.2-0.1-10.1-2.3-13.6-6.1l-3.8,4.3c4.5,4.7,10.7,7.4,17.3,7.3
	c10.4,0,16.8-6.2,16.8-14.1C669.9,229.2,665.4,225.8,659.7,223.4z M659.7,112.6l16.7,49.3h-6.6l-4.7-15h-18l-4.7,15H636l16.7-49.3
	L659.7,112.6z M661.2,134.4c-1.8-5.5-3.4-10.9-5-16.6h-0.3c-1.5,5.7-3.1,11.1-4.9,16.6l-2.3,7.5h14.9L661.2,134.4z M660,312.6
	c0,15.7-8.1,24.9-23,24.9h-12.6v-49.3h12.3C651.8,288.1,660,296.9,660,312.6L660,312.6z M653.6,312.6c0-12.5-5.8-19.4-17.3-19.4
	h-5.6v39.1h5.6C647.7,332.3,653.5,325.1,653.6,312.6L653.6,312.6z"/>
</svg>
