<?xml version="1.0" encoding="utf-8"?>
<!-- Generator: Adobe Illustrator 26.0.1, SVG Export Plug-In . SVG Version: 6.00 Build 0)  -->
<svg version="1.1" id="Layer_1" xmlns="http://www.w3.org/2000/svg" xmlns:xlink="http://www.w3.org/1999/xlink" x="0px" y="0px"
	 viewBox="0 0 831 127" style="enable-background:new 0 0 831 127;" xml:space="preserve">
<style type="text/css">
	.st0{fill:#003468;}
</style>
<path class="st0" d="M612.8,107.8l-10.7-14.7c-1.6-2.3-2.6-3.6-5.1-3.6h-0.5v-1.6h16.4v1.6h-0.7c-1.4,0-2.8,0.4-2.8,1.2
	c0,0.6,0.6,1.3,1,1.8l8.1,11.4l6.6-9.6c1-1.6,1.7-2.5,1.7-3.5c0-1.1-2.3-1.3-3.1-1.3h-1v-1.6h11.2v1.6c-1.8,0-3.3,1.3-4.2,2.5
	l-10,14.1v12.8c0,4.6,1.6,4.8,4.5,4.8h1v1.6h-17.8v-1.6h1c3.2,0,4.5-0.9,4.5-4.4L612.8,107.8L612.8,107.8z M331.8,89.5h-1.2
	c-2,0-2.8,0.8-2.8,1.5c0,0.3,0.2,1,0.5,1.7l9.2,23.8h0.1l8.5-22.3c0.6-1.7,0.7-2.6,0.7-3c0-1.6-1.6-1.8-3.4-1.8h-0.9v-1.6h12.4v1.6
	H353c-1,0-2,0.2-2.8,1.9c-0.4,0.8-13.9,34.7-13.9,34.7h-2l-13.6-33.5c-1-2.5-2.1-3.1-4.5-3.1h-0.5v-1.6h16.2L331.8,89.5L331.8,89.5z
	 M169.2,93.4c0-3.9-2-3.9-4.1-3.9h-0.6v-1.6H181v1.6h-0.6c-2.1,0-4.3,0.1-4.3,3.9v18.5c0,6.8,2.5,11.5,10.2,11.5
	c7.1,0,10.2-4.5,10.2-11.7l0-23.8h7.8v1.6h-1.1c-1.4,0-3.4,0.1-3.4,3.9v17.1c0,12.1-6.4,15.6-14.4,15.6c-10.3,0-16-3.8-16-13.3V93.4
	z M256.8,114.7l0.1-0.1V94.5c0-4.4-3.1-5-4.7-5h-1.2v-1.6h14.1v1.6h-0.8c-2.3,0-4.6,0.4-4.6,6.8v29.8h-1.9l-27.6-30.8v22.1
	c0,4.7,0.9,6.3,5,6.3h0.9v1.6H222v-1.6h0.8c3.7,0,4.8-2.5,4.8-6.8V94.3c0-3-2.5-4.8-4.9-4.8H222v-1.6H233L256.8,114.7L256.8,114.7z
	 M282.8,123.7h0.8c1.9,0,4-0.3,4-3.1V92.5c0-2.8-2-3.1-4-3.1h-0.8v-1.6h16.4v1.6h-0.8c-1.9,0-4,0.3-4,3.1v28.1c0,2.8,2,3.1,4,3.1
	h0.8v1.6h-16.4V123.7z M368.4,123.7h0.7c1.9,0,4-0.3,4-3.1V92.5c0-2.8-2-3.1-4-3.1h-0.7v-1.6h27.1l0.1,8.4h-1.6
	c-0.3-3.5-0.9-6.1-6.5-6.1H380v14h6.4c3.2,0,3.9-1.8,4.2-4.7h1.6v12.5h-1.6c-0.3-3.2-0.5-5.1-4.2-5.1H380v12.5
	c0,3.5,3.1,3.5,6.5,3.5c6.4,0,9.3-0.2,10.9-6.4h1.5c-0.7,2.8-1.8,8.7-1.8,8.7h-28.7L368.4,123.7L368.4,123.7z M421.2,93.5
	c0-3.9-2.1-4.1-3.8-4.1h-1v-1.6h16.9c6.8,0,12.8,1.8,12.8,9.4c0,4.8-3.2,7.8-7.5,9.4l9.2,13.7c1.5,2.3,2.6,2.9,5.2,3.2v1.6h-9.5
	c0,0-7.7-11.2-11.2-17.4H428v11.5c0,4.1,1.9,4.3,4.4,4.3h1v1.6h-17v-1.6h1c2,0,3.8-0.9,3.8-2.9L421.2,93.5L421.2,93.5z M428,106h2.6
	c5.4,0,8.3-2,8.3-8.4c0-4.8-3.1-7.8-7.8-7.8c-1.6,0-2.3,0.2-3.1,0.2L428,106L428,106z M488.2,95.7c-0.4-3.5-2.6-6.7-6.3-6.7
	c-4.2,0-6.6,2.5-6.6,6.8c0,8.9,16.1,6.2,16.1,19.1c0,7.4-6.1,11.3-13,11.3c-3,0-8.5-2.4-8.5-2.4l-0.9-8.3h1.5
	c0.6,4.6,3.2,8.4,8.3,8.4c3.6,0,6.6-2.3,6.6-6.1c0-9.5-15.8-6.5-15.8-19.5c0-7,4.9-11.1,11.8-11.1c1.5,0,7.7,0.8,7.7,0.8l0.5,7.8
	H488.2L488.2,95.7z M510.4,123.7h0.8c1.9,0,4-0.3,4-3.1V92.5c0-2.8-2-3.1-4-3.1h-0.8v-1.6h16.4v1.6H526c-1.9,0-4,0.3-4,3.1v28.1
	c0,2.8,2,3.1,4,3.1h0.8v1.6h-16.4L510.4,123.7L510.4,123.7z M550.9,90.5c-4,0-3.9,1-4.7,4.9h-1.4v-9.1h1.4c0.4,1.6,2.1,1.6,3.5,1.6
	h27.7c1.4,0,2.3,0.1,2.4-1.6h1.4v9.1h-1.4c-0.1-2-0.9-4.9-4.5-4.9h-8.8v28.5c0,4.1,1.9,4.6,4.5,4.6h1v1.6h-17.8v-1.6h1
	c2.9,0,4.4-0.3,4.4-4.5V90.5H550.9z M629.2,33.3v2.5h1.1c3.1,0,6.4,0.8,6.4,4.3v3.8c0,7.7-0.4,15.1-9.4,15.1
	c-16.1,0-22.8-14.9-22.8-28.8C604.6,16.2,612,5,627.1,5c9.9,0,15.1,3.6,17.6,14l2.5-0.2l-1-11.7c0,0-6.2-3.6-9.5-4.3
	c-3.3-0.8-4.9-1.5-10.2-1.5c-17,0-33.8,10.2-33.8,29.8c0,20.3,14.3,31.6,33.2,31.6c9.5,0,13.2-2,16-4.7l2.9,3.4h2.8V33.3H629.2
	L629.2,33.3z M435.3,59h1.2c3,0,6.3-0.4,6.3-4.8V9.8c0-4.4-3.2-4.8-6.3-4.8h-1.2V2.5h46.3l0.2,13.3h-2.5c-0.4-5.5-1.4-9.6-10.3-9.6
	h-15.3v22.2h10.1c5.1,0,6.2-2.9,6.7-7.4h2.5V41h-2.5c-0.5-5.1-0.8-8.4-6.6-8.4h-10.2v19.7c0,5.5,4.9,5.5,10.3,5.5
	c10.2,0,14.6-0.4,17.2-10h2.4l-2.9,13.8h-45.3L435.3,59L435.3,59L435.3,59z M263.9,1.2c18,0,32.4,11.2,32.4,29.2
	c0,19.5-14,32.4-32,32.4c-17.9,0-31.7-12.2-31.7-30.4C232.7,14.8,246.3,1.2,263.9,1.2z M265.2,59.1c16.4,0,19.3-14.5,19.3-26.8
	c0-12.4-6.7-27.3-20.7-27.3c-14.8,0-19.2,13.2-19.2,24.5C244.5,44.6,251.4,59.1,265.2,59.1z M324.8,53.2c0,3.4,2.4,4.4,5.1,4.7
	c3.5,0.3,7.3,0.3,11.2-0.2c3.6-0.4,6.6-2.5,8.1-4.6c1.4-1.9,2.1-4.2,2.6-6.1h2.5c-0.9,4.8-2.1,9.6-3.1,14.4h-44.7V59h1.2
	c3,0,6.3-0.4,6.3-5.7V9.8c0-4.4-3.3-4.8-6.3-4.8h-1.2V2.5h26.2V5h-2.1c-3.2,0-5.8,0.1-5.8,4.6L324.8,53.2L324.8,53.2L324.8,53.2z
	 M365,59h1.2c3,0,6.3-0.4,6.3-4.8V9.8c0-4.4-3.2-4.8-6.3-4.8H365V2.5h27.2c20.8,0,33.6,11.7,33.6,29.4c0,16.9-12.5,29.7-31.4,29.7
	H365C365,61.5,365,59,365,59z M383.3,51.8c0,5.9,2.7,6.7,8.8,6.7c14.4,0,21.8-12,21.8-25c0-22.3-11.3-27.9-24.9-27.9
	c-1.9,0-3.9,0.3-5.8,0.4C383.3,5.9,383.3,51.8,383.3,51.8z M548.9,44.9l0.2-0.2V12.9c0-6.9-4.8-8-7.4-8h-1.9V2.5h22.3V5h-1.3
	c-3.6,0-7.4,0.7-7.4,10.7v47.1h-2.9L507,14.2v34.9c0,7.4,1.4,9.9,8,9.9h1.4v2.5H494V59h1.2c5.8,0,7.6-4,7.6-10.7V12.6
	c0-4.7-3.9-7.6-7.7-7.6H494V2.5h17.3L548.9,44.9L548.9,44.9z M670.2,56c0,2.5,3.6,3,6.3,3h0.9v2.5h-19.4V59h0.5
	c3.3,0,6.1-1.9,7.4-5.5l13.5-38.8c1.1-3.1,3.1-10.5,3.1-10.5l9-3.6L708,47c1,3,2,6.1,3.1,8.6c1,2.4,2.8,3.4,5.6,3.4h0.5v2.5h-16.6
	L694,40.6h-19.2C674.8,40.6,670.2,54.5,670.2,56z M684.4,11.9h-0.2l-7.9,24h15.8L684.4,11.9L684.4,11.9z M724.6,6.7
	c-6.3,0-6.1,1.5-7.4,7.7H715V0h2.2c0.7,2.5,3.3,2.5,5.6,2.5h44.8c2.3,0,3.6,0.1,3.8-2.5h2.3v14.4h-2.3c-0.2-3.1-1.4-7.7-7.1-7.7
	h-13.9v45c0,6.5,3,7.3,7,7.3h1.6v2.5H731V59h1.6c4.7,0,7-0.4,7-7.1V6.7C739.6,6.7,724.6,6.7,724.6,6.7z M782.3,59h1.2
	c3,0,6.3-0.4,6.3-4.8V9.8c0-4.4-3.2-4.8-6.3-4.8h-1.2V2.5h44.9l0.2,13.3h-2.5c-0.4-5.5-1.4-9.6-10.3-9.6h-14v22.2h10.1
	c5.1,0,6.2-2.9,6.7-7.4h2.5V41h-2.5c-0.5-5.1-0.8-8.4-6.6-8.4h-10.2v19.7c0,5.5,4.9,5.5,10.3,5.5c10.2,0,14.6-0.4,17.2-10h2.4
	l-2.9,13.8h-45.3C782.3,61.5,782.3,59,782.3,59z M202.1,33.3v2.5h1.1c3.1,0,6.4,0.8,6.4,4.3v3.8c0,7.7-0.4,15.1-9.4,15.1
	c-16.1,0-22.8-14.9-22.8-28.8C177.5,16.2,184.9,5,200,5c9.9,0,15.1,3.6,17.6,14l2.5-0.2l-1-11.7c0,0-6.2-3.6-9.5-4.3
	c-3.3-0.8-4.9-1.5-10.2-1.5c-17,0-33.8,10.2-33.8,29.8c0,20.3,14.3,31.6,33.2,31.6c9.5,0,13.2-2,16-4.7l2.9,3.4h2.8V33.3H202.1z
	 M64.8,59.2l-0.2-8.8c0-1.1-2.1-2.5-4.7-2.5h-9.1c-2.6,0-4.7,1.4-4.7,2.5L46,59.2c0,0-0.2,1.4,1.6,1.4h15.6
	C65,60.6,64.8,59.2,64.8,59.2z M57.2,68.3h-3.7c-3.8,0-6.8,1.3-6.9,3l-0.2,13.6c0,0.8,1.4,1.5,3.2,1.5h11.5c1.8,0,3.2-0.7,3.2-1.5
	l-0.2-13.6C64.1,69.6,61,68.3,57.2,68.3z M98.6,95.8c-2.9-3.5-5.6-7.1-8.2-10.9l7,37.9l8.4,1.6C105.9,124.3,98.6,95.8,98.6,95.8z
	 M81,69.2l5.5,51.6l7.8,1.4l-7.8-43.3C84.5,75.7,82.7,72.5,81,69.2z M8,100.5c-4.7,5.1-7.9,7.9-8,8v16.7l1.5-0.3L8,100.5z M77,60.9
	c-2-4.7-3.8-9.4-5.3-14.3l0.8,12c0,0.3,0.2,0.6,0.5,0.7l0.2,0.1c0.3,0.1,0.5,0.4,0.5,0.7l4,59l5.6,1L77,60.9z M27.5,120.2l5.6-1
	l4-59c0-0.3,0.2-0.6,0.5-0.7l0.2-0.1c0.3-0.1,0.5-0.4,0.5-0.7l0.8-12.1c-1.5,4.9-3.3,9.7-5.3,14.4L27.5,120.2z M102.8,100.5
	l6.5,24.4l1.6,0.3v-16.7C110.8,108.5,107.5,105.8,102.8,100.5z"/>
<path class="st0" d="M0,1.7v95.6c27.2-23.8,42-72.9,42-72.9l1-2.1h1.1l1,2.1h20.4l1-2.1h1.1l1,2.1l0,0.1c0.4,1.4,15.2,49.4,42,72.8
	V1.7H0z"/>
<path class="st0" d="M62.3,30.4H48.5c-1.4,0-2.5,1.7-2.6,2.6L45.8,40v0.3c0,0.9,2.2,1.3,4.3,1.3h10.5c2.1,0,4.3-0.4,4.3-1.3V40
	l-0.1-7.1C64.8,32.1,63.7,30.4,62.3,30.4z M64.6,104.9c-0.1-5.1-2.7-7.5-5.3-7.5h-7.9c-3.1,0-5.2,2.4-5.3,7.5L46,116.7l9.4-1.8
	l9.4,1.8L64.6,104.9z M4.9,124.4l8.4-1.6l7-37.9c-2.6,3.7-5.3,7.4-8.2,10.9L4.9,124.4L4.9,124.4z M16.5,122.2l7.8-1.4l5.5-51.6
	c-1.7,3.3-3.6,6.6-5.5,9.7L16.5,122.2z"/>
</svg>
