<?xml version="1.0" encoding="utf-8"?>
<!-- Generator: Adobe Illustrator 26.0.1, SVG Export Plug-In . SVG Version: 6.00 Build 0)  -->
<svg version="1.1" id="Layer_1" xmlns="http://www.w3.org/2000/svg" xmlns:xlink="http://www.w3.org/1999/xlink" x="0px" y="0px"
	 viewBox="0 0 250 100" style="enable-background:new 0 0 250 100;" xml:space="preserve">
<style type="text/css">
	.st0{fill:#CC0000;}
	.st1{display:none;}
	.st2{display:inline;fill:#FFFFFF;}
	.st3{fill:#FFFFFF;}
	.st4{clip-path:url(#SVGID_00000052080425659776510270000010411321387721183376_);}
	.st5{fill:#FFFFFF;stroke:#636466;stroke-width:0.6654;stroke-miterlimit:10;}
	.st6{fill:none;stroke:#636466;stroke-width:0.4491;stroke-miterlimit:10;}
	.st7{clip-path:url(#SVGID_00000156575533232516803830000004904504827790962851_);}
	.st8{clip-path:url(#SVGID_00000088852999172136497630000006357681067081051816_);}
	.st9{clip-path:url(#SVGID_00000121962758513371227110000016980151181936368028_);}
	.st10{clip-path:url(#SVGID_00000041286559301686413640000017618321941867606689_);}
	.st11{clip-path:url(#SVGID_00000016064474064218508470000005731091073889538997_);}
	.st12{fill:#636466;}
	.st13{clip-path:url(#SVGID_00000038399820974027104110000017012781627715627943_);}
	.st14{clip-path:url(#SVGID_00000146487028976545997300000004439812058481464481_);}
	.st15{clip-path:url(#SVGID_00000023986141226721813930000015810491420421189023_);}
	.st16{clip-path:url(#SVGID_00000102506230580581952700000009412149714584855424_);}
	.st17{clip-path:url(#SVGID_00000070838294420515395410000000921807569887805857_);}
	.st18{clip-path:url(#SVGID_00000080910925502703472720000007646917136837500348_);}
	.st19{fill:#FFFFFF;stroke:#636466;stroke-width:0.693;stroke-linecap:round;stroke-linejoin:round;stroke-miterlimit:10;}
	.st20{fill:none;stroke:#636466;stroke-width:0.6971;stroke-linecap:round;stroke-linejoin:round;stroke-miterlimit:10;}
	
		.st21{clip-path:url(#SVGID_00000137127156400526020400000007951710672839663539_);fill:#FFFFFF;stroke:#636466;stroke-width:0.84;stroke-miterlimit:10;}
	.st22{fill:none;stroke:#808285;stroke-width:0.79;}
	.st23{display:none;fill:#FFFFFF;}
</style>
<g>
	<g>
		<g id="Outter_Ring_2_">
			<circle class="st0" cx="125" cy="50" r="37.9"/>
		</g>
		<g id="extra_small_uses_2_" class="st1">
			<path class="st2" d="M125,13.5c20.2,0,36.5,16.3,36.5,36.5c0,20.1-16.3,36.5-36.5,36.5S88.5,70.1,88.5,50
				C88.5,29.8,104.9,13.5,125,13.5 M125,13c-20.4,0-37,16.6-37,37s16.6,37,37,37s37-16.6,37-37S145.4,13,125,13L125,13z"/>
		</g>
		<g id="Thicker_White_border_2_">
			<path class="st3" d="M125,13.9c20,0,36.1,16.2,36.1,36.1c0,19.9-16.2,36.1-36.1,36.1c-20,0-36.1-16.2-36.1-36.1
				C88.9,30,105,13.9,125,13.9 M125,13.1c-20.4,0-36.9,16.6-36.9,36.9c0,20.4,16.6,36.9,36.9,36.9c20.4,0,36.9-16.6,36.9-36.9
				C161.9,29.6,145.4,13.1,125,13.1L125,13.1z"/>
		</g>
	</g>
	
		<ellipse id="CENTER_RING_FILL_2_" transform="matrix(0.1602 -0.9871 0.9871 0.1602 55.6237 165.3761)" class="st3" cx="125" cy="50" rx="25.8" ry="25.8"/>
	<g>
		<g>
			<defs>
				
					<ellipse id="SVGID_1_" transform="matrix(0.1735 -0.9848 0.9848 0.1735 54.0713 164.4283)" cx="125" cy="50" rx="26.2" ry="26.2"/>
			</defs>
			<clipPath id="SVGID_00000053526123151077088900000017842190544800933047_">
				<use xlink:href="#SVGID_1_"  style="overflow:visible;"/>
			</clipPath>
			<g id="Center_Organic_rev_2_" style="clip-path:url(#SVGID_00000053526123151077088900000017842190544800933047_);">
				<path class="st5" d="M124.8,67.2c0,0-2.3-4.2-2.7-8.5c-0.3-3.2,1.3-5.5,1.5-7.9c0.3-3.5-2.9-5.3-0.5-15.8l5.4-0.2
					c0,0-0.9,5.1-1.4,7.8c-0.6,3.8,1.2,6.4,1.4,9.1c0.4,3.3-3.3,3.5-3.9,6.7C124.1,60.8,124.4,64.7,124.8,67.2z"/>
				<path class="st6" d="M125.1,34.7c0,0-0.1,3.1-0.5,6.7c-0.4,3.3,1.2,7.2,1.1,9.7c-0.1,2.2-1.5,3.1-2,6c-0.5,3.1,0.3,7.7,1,9.4"/>
			</g>
		</g>
		<g>
			<defs>
				
					<ellipse id="SVGID_00000000197934398701175500000009702302959449473152_" transform="matrix(0.1735 -0.9848 0.9848 0.1735 54.0713 164.4283)" cx="125" cy="50" rx="26.2" ry="26.2"/>
			</defs>
			<clipPath id="SVGID_00000083803565403779939370000010266800998437757832_">
				<use xlink:href="#SVGID_00000000197934398701175500000009702302959449473152_"  style="overflow:visible;"/>
			</clipPath>
			<g id="_x34__pm_oragnic_rev_2_" style="clip-path:url(#SVGID_00000083803565403779939370000010266800998437757832_);">
				<path class="st5" d="M149.1,61c0,0-0.4-2.9-1.4-6.1c-0.4-1.1-0.9-3-1.8-4.4c-1.5-2.3-5.5-4.8-6.8-7.2c-1.4-2.6-1.9-6.3-6.4-11.5
					l-4.7,3.1c0,0,2.9,2.6,4.4,4.5c1.7,2.3,2.2,5.5,3.9,7.2c3.6,3.7,5.3,3,7.6,5C145.9,53.6,147.9,58.7,149.1,61z"/>
				<path class="st6" d="M130.4,34c0,0,3.1,2.1,4.5,5.1c1.1,2.5,1.8,5.3,3.7,7c1.9,1.6,4.3,3.2,5.9,4.7c1.7,1.6,3.5,7.2,4.2,9"/>
			</g>
		</g>
		<g>
			<defs>
				
					<ellipse id="SVGID_00000168115609325164401600000003121146043707889333_" transform="matrix(0.1735 -0.9848 0.9848 0.1735 54.0713 164.4283)" cx="125" cy="50" rx="26.2" ry="26.2"/>
			</defs>
			<clipPath id="SVGID_00000121961845248960786610000000625210237948742565_">
				<use xlink:href="#SVGID_00000168115609325164401600000003121146043707889333_"  style="overflow:visible;"/>
			</clipPath>
			<g id="_x37__pm_oragnic_rev_2_" style="clip-path:url(#SVGID_00000121961845248960786610000000625210237948742565_);">
				<path class="st5" d="M100.9,61c0,0,0.4-2.9,1.4-6.1c0.4-1.1,0.9-3,1.8-4.4c1.5-2.3,5.5-4.8,6.8-7.2c1.4-2.6,1.9-6.3,6.4-11.5
					l4.7,3.1c0,0-2.9,2.6-4.4,4.5c-1.7,2.3-2.2,5.5-3.9,7.2c-3.6,3.7-5.3,3-7.6,5C104.1,53.6,102.1,58.7,100.9,61z"/>
				<path class="st6" d="M119.6,34c0,0-3.1,2.1-4.5,5.1c-1.1,2.5-1.8,5.3-3.7,7c-1.9,1.6-4.3,3.2-5.9,4.7c-1.7,1.6-3.5,7.2-4.2,9"/>
			</g>
		</g>
		<g>
			<defs>
				
					<ellipse id="SVGID_00000172426180433530238670000006682035893506771130_" transform="matrix(0.1735 -0.9848 0.9848 0.1735 54.0713 164.4283)" cx="125" cy="50" rx="26.2" ry="26.2"/>
			</defs>
			<clipPath id="SVGID_00000023271965695717624860000015703563874264716977_">
				<use xlink:href="#SVGID_00000172426180433530238670000006682035893506771130_"  style="overflow:visible;"/>
			</clipPath>
			<g id="Upper_Left_organic_2_" style="clip-path:url(#SVGID_00000023271965695717624860000015703563874264716977_);">
				<path class="st5" d="M87.5,37.2c0,0,2.4-2.8,6.5-4.5c3-1.2,7.1-0.3,9.8-1.3c2.8-1.1,6-4.5,12.8-5.6l1.4,4.8c0,0-2.6,0.5-4.9,1.1
					c-2.9,0.8-4.1,1.8-6.6,2.3c-3.3,0.6-8,0.7-11.3,0.9C92.5,35.2,89.8,36,87.5,37.2z"/>
				<path class="st6" d="M117.5,28.8c0,0-2.5,0-5.7,1.4c-3.6,1.5-6.3,2.7-8.7,3.3c-2.2,0.5-4.3-0.1-7.2,0.2
					c-3.1,0.4-7.3,2.5-8.7,3.7"/>
			</g>
		</g>
		<g>
			<defs>
				
					<ellipse id="SVGID_00000109031020918398900310000003096083608476903819_" transform="matrix(0.1735 -0.9848 0.9848 0.1735 54.0713 164.4283)" cx="125" cy="50" rx="26.2" ry="26.2"/>
			</defs>
			<clipPath id="SVGID_00000145776845220884241100000006046838811990605988_">
				<use xlink:href="#SVGID_00000109031020918398900310000003096083608476903819_"  style="overflow:visible;"/>
			</clipPath>
			<g id="Upper_Right_organic_2_" style="clip-path:url(#SVGID_00000145776845220884241100000006046838811990605988_);">
				<path class="st5" d="M162.5,37.2c0,0-2.4-2.8-6.5-4.5c-3-1.2-7.1-0.3-9.8-1.3c-2.8-1.1-6-4.5-12.8-5.6l-1.4,4.8
					c0,0,2.6,0.5,4.9,1.1c2.9,0.8,4.1,1.8,6.6,2.3c3.3,0.6,8,0.7,11.3,0.9C157.5,35.2,160.2,36,162.5,37.2z"/>
				<path class="st6" d="M132.5,28.8c0,0,2.5,0,5.7,1.4c3.6,1.5,6.3,2.7,8.7,3.3c2.2,0.5,4.3-0.1,7.2,0.2c3.1,0.4,7.3,2.5,8.7,3.7"
					/>
			</g>
		</g>
		<g>
			<defs>
				
					<ellipse id="SVGID_00000109733788513089978870000007429742346022531734_" transform="matrix(0.1735 -0.9848 0.9848 0.1735 54.0713 164.4283)" cx="125" cy="50" rx="26.2" ry="26.2"/>
			</defs>
			<clipPath id="SVGID_00000102507021310166426330000004267219441730224789_">
				<use xlink:href="#SVGID_00000109733788513089978870000007429742346022531734_"  style="overflow:visible;"/>
			</clipPath>
			<g style="clip-path:url(#SVGID_00000102507021310166426330000004267219441730224789_);">
				<polygon class="st12" points="151.3,46.5 133.1,29.9 130,34 				"/>
			</g>
		</g>
		<g>
			<defs>
				
					<ellipse id="SVGID_00000172420072066381701340000002400159270194337185_" transform="matrix(0.1735 -0.9848 0.9848 0.1735 54.0713 164.4283)" cx="125" cy="50" rx="26.2" ry="26.2"/>
			</defs>
			<clipPath id="SVGID_00000073003171777478267120000014463953758695892864_">
				<use xlink:href="#SVGID_00000172420072066381701340000002400159270194337185_"  style="overflow:visible;"/>
			</clipPath>
			<g style="clip-path:url(#SVGID_00000073003171777478267120000014463953758695892864_);">
				<polygon class="st12" points="135.2,58.9 129.7,32.3 124.3,34 				"/>
			</g>
		</g>
		<g>
			<defs>
				
					<ellipse id="SVGID_00000156551148447415901370000016418778382032946866_" transform="matrix(0.1735 -0.9848 0.9848 0.1735 54.0713 164.4283)" cx="125" cy="50" rx="26.2" ry="26.2"/>
			</defs>
			<clipPath id="SVGID_00000042708019171999726730000013060704040814298779_">
				<use xlink:href="#SVGID_00000156551148447415901370000016418778382032946866_"  style="overflow:visible;"/>
			</clipPath>
			<g style="clip-path:url(#SVGID_00000042708019171999726730000013060704040814298779_);">
				<polygon class="st12" points="114.8,58.9 120.3,32.3 125.7,34 				"/>
			</g>
		</g>
		<g>
			<defs>
				
					<ellipse id="SVGID_00000175312543134977806020000011739521588144669318_" transform="matrix(0.1735 -0.9848 0.9848 0.1735 54.0713 164.4283)" cx="125" cy="50" rx="26.2" ry="26.2"/>
			</defs>
			<clipPath id="SVGID_00000019650702345396968720000003985986909073411258_">
				<use xlink:href="#SVGID_00000175312543134977806020000011739521588144669318_"  style="overflow:visible;"/>
			</clipPath>
			<g style="clip-path:url(#SVGID_00000019650702345396968720000003985986909073411258_);">
				<polygon class="st12" points="98.7,46.5 116.9,29.9 120,34.1 				"/>
			</g>
		</g>
		<g>
			<defs>
				
					<ellipse id="SVGID_00000149373141240764930580000012161674792080496777_" transform="matrix(0.1735 -0.9848 0.9848 0.1735 54.0713 164.4283)" cx="125" cy="50" rx="26.2" ry="26.2"/>
			</defs>
			<clipPath id="SVGID_00000001645163932024463470000017344500482801480359_">
				<use xlink:href="#SVGID_00000149373141240764930580000012161674792080496777_"  style="overflow:visible;"/>
			</clipPath>
			<g id="Upper_R_spike_2_" style="clip-path:url(#SVGID_00000001645163932024463470000017344500482801480359_);">
				<polygon class="st12" points="157.4,26 157.4,26 157.4,26 133.2,25.2 133.5,30 				"/>
			</g>
		</g>
		<g>
			<defs>
				
					<ellipse id="SVGID_00000073721113049340292310000016882115508180356798_" transform="matrix(0.1735 -0.9848 0.9848 0.1735 54.0713 164.4283)" cx="125" cy="50" rx="26.2" ry="26.2"/>
			</defs>
			<clipPath id="SVGID_00000026135146631104048600000012491543319537722302_">
				<use xlink:href="#SVGID_00000073721113049340292310000016882115508180356798_"  style="overflow:visible;"/>
			</clipPath>
			<g id="Upper_L_Spike_2_" style="clip-path:url(#SVGID_00000026135146631104048600000012491543319537722302_);">
				<polygon class="st12" points="92.7,25.9 92.7,25.9 92.7,25.9 116.9,25.1 116.6,29.9 				"/>
			</g>
		</g>
		<g>
			<defs>
				
					<ellipse id="SVGID_00000119823228849514602250000007742401236963465401_" transform="matrix(0.1735 -0.9848 0.9848 0.1735 54.0713 164.4283)" cx="125" cy="50" rx="26.2" ry="26.2"/>
			</defs>
			<clipPath id="SVGID_00000040544048981879149470000012534933955717893036_">
				<use xlink:href="#SVGID_00000119823228849514602250000007742401236963465401_"  style="overflow:visible;"/>
			</clipPath>
			<g style="clip-path:url(#SVGID_00000040544048981879149470000012534933955717893036_);">
				<path class="st12" d="M125,72.5h-1.8c0,0-0.7,0-0.7-0.7c0-0.3,0.1-0.4,0.1-0.4l-10.8,1l-1.9-1.3V51.8c0,0,30.2,0,30.2,0v19.3
					l-1.9,1.3l-10.8-1c0,0,0.1,0.1,0.1,0.4c0,0.6-0.7,0.7-0.7,0.7H125z"/>
				<path id="SM_bottom_page_2_" class="st19" d="M125,70.8c0,0-1.9-1.1-4.6-1.1c-2.7,0-3.8,1.2-6.6,1.2c-2.5,0-2.9-0.5-2.9-0.5
					c0,0,0-19.6,0-19.6s0.2,0.2,0.8,0.3h26.6c0.7-0.1,0.8-0.3,0.8-0.3s0,19.7,0,19.6c0,0-0.4,0.5-2.9,0.5c-2.8,0-3.9-1.2-6.6-1.2
					C126.9,69.7,125,70.8,125,70.8z"/>
				<path id="SM_top_page_2_" class="st19" d="M125,68.8c0,0,1.8-1.1,4.4-1.1c2.6,0,3.5,1.2,5.7,1.2c2.2,0,2.4-0.5,2.4-0.5
					c0,0,0-19.6,0-19.6s-0.4,0.5-2.6,0.5c-2.4,0-3.2-1.2-5.8-1.2c-2.4,0-4.1,1.1-4.1,1.1S123.4,48,121,48c-2.6,0-3.4,1.2-5.8,1.2
					c-2.2,0-2.6-0.5-2.6-0.5s0,19.7,0,19.6c0,0,0.2,0.5,2.4,0.5c2.2,0,3.1-1.2,5.7-1.2C123.2,67.7,125,68.8,125,68.8z"/>
				<line id="SM_spine_2_" class="st20" x1="125" y1="68.8" x2="125" y2="70.8"/>
				<g>
					<path class="st12" d="M119.6,52.1c0,0.1,0.1,0.8,0.1,1.2l-0.3,0c-0.1-0.4-0.2-0.6-0.4-0.7c-0.2-0.1-0.5-0.2-1.1-0.2h-0.5
						c-0.4,0-0.4,0-0.4,0.3v1.9h1c0.9,0,0.9-0.1,1-0.7h0.3v1.7H119c-0.1-0.6-0.1-0.7-1-0.7h-1v1.3c0,0.9,0.1,1,1,1v0.2h-3v-0.2
						c0.7-0.1,0.8-0.1,0.8-1v-2.9c0-0.9-0.1-1-0.8-1v-0.2C115,52.1,119.6,52.1,119.6,52.1z"/>
					<path class="st12" d="M123.2,52.1v0.2c-0.8,0-0.8,0.1-0.8,1v2.9c0,0.9,0.1,1,0.8,1v0.2h-2.8v-0.2c0.8-0.1,0.9-0.1,0.9-1v-2.9
						c0-0.9-0.1-1-0.9-1v-0.2H123.2z"/>
					<path class="st12" d="M127.1,52l0.7,1.6c0.5,1,0.9,2.1,1.3,2.9c0.3,0.7,0.5,0.8,1.1,0.9v0.2h-2.6v-0.2l0.3,0
						c0.4,0,0.4-0.1,0.3-0.5c-0.1-0.3-0.3-0.8-0.6-1.2h-1.9c-0.1,0.3-0.3,0.7-0.5,1.1c-0.2,0.4-0.1,0.6,0.3,0.6l0.3,0v0.2h-2.2v-0.2
						c0.6-0.1,0.7-0.1,1.1-0.9l2-4.4L127.1,52z M125.8,55.2h1.6l-0.8-1.8h0L125.8,55.2z"/>
					<path class="st12" d="M129.6,53.4c0-0.6,0.1-1.1,0.1-1.5h0.2c0.1,0.2,0.2,0.2,0.5,0.2h4.1c0.3,0,0.3,0,0.5-0.2h0.2
						c0,0.4,0.1,1,0.1,1.5l-0.3,0c-0.1-0.4-0.2-0.7-0.4-0.8c-0.2-0.2-0.5-0.2-1.1-0.2H133v3.9c0,0.9,0.1,1,1,1v0.2h-3.1v-0.2
						c0.9-0.1,1-0.1,1-1v-3.9h-0.3c-0.9,0-1.1,0.1-1.3,0.3c-0.1,0.1-0.2,0.3-0.4,0.7C129.9,53.4,129.6,53.4,129.6,53.4z"/>
					<path class="st12" d="M118.6,59.5v0.2c-0.8,0.1-0.9,0.1-0.9,1v2.9c0,0.5,0.1,0.7,0.2,0.8c0.2,0.1,0.5,0.1,0.8,0.1
						c0.5,0,0.9,0,1.2-0.2c0.2-0.2,0.3-0.4,0.5-0.8l0.3,0.1c-0.1,0.3-0.3,1.1-0.4,1.4h-4.7v-0.2c0.8-0.1,0.9-0.1,0.9-1v-2.9
						c0-0.9-0.1-1-0.9-1v-0.2H118.6z"/>
					<path class="st12" d="M123.4,59.5v0.2c-0.7,0.1-0.8,0.1-0.8,1v1.8c0,1.3,0.5,2.1,1.7,2.1c1.2,0,1.8-0.8,1.8-2.2v-0.5
						c0-1-0.1-1.4-0.1-1.7c-0.1-0.3-0.3-0.4-1-0.4v-0.2h2.5v0.2c-0.5,0-0.8,0.1-0.8,0.4c0,0.3-0.1,0.7-0.1,1.7v0.6
						c0,0.8-0.2,1.5-0.7,2c-0.4,0.4-1.2,0.6-1.9,0.6c-0.6,0-1.3-0.1-1.8-0.4c-0.5-0.4-0.8-1-0.8-2v-1.9c0-0.9-0.1-1-0.9-1v-0.2
						H123.4z"/>
					<path class="st12" d="M130.8,59.5v0.2l-0.3,0c-0.3,0-0.4,0.1-0.2,0.3c0.1,0.1,0.6,0.8,1.1,1.4c0.3-0.4,0.7-0.9,1-1.4
						c0.2-0.3,0.2-0.3-0.2-0.4l-0.3,0v-0.2h2.3v0.2c-0.7,0.1-0.8,0.1-1.2,0.6c-0.3,0.3-0.8,0.8-1.3,1.5l1.7,2.2
						c0.4,0.6,0.6,0.6,1.3,0.7v0.2h-2.9v-0.2l0.3,0c0.4,0,0.4-0.1,0.2-0.4c-0.1-0.2-0.4-0.6-1.3-1.7c-0.5,0.6-1,1.4-1.2,1.6
						c-0.1,0.2-0.2,0.4,0.2,0.4l0.4,0v0.2h-2.5v-0.2c0.6-0.1,0.8-0.1,1.1-0.4c0.2-0.2,1.1-1.3,1.7-2l-1.4-1.9
						c-0.4-0.5-0.5-0.6-1.2-0.7v-0.2H130.8z"/>
				</g>
			</g>
		</g>
		<g>
			<defs>
				
					<ellipse id="SVGID_00000140700678627067996660000007709391275540027290_" transform="matrix(0.1735 -0.9848 0.9848 0.1735 54.0713 164.4283)" cx="125" cy="50" rx="26.2" ry="26.2"/>
			</defs>
			<clipPath id="SVGID_00000156559078761356007050000006154648297577256115_">
				<use xlink:href="#SVGID_00000140700678627067996660000007709391275540027290_"  style="overflow:visible;"/>
			</clipPath>
			
				<ellipse id="new_sun_2_x25__wider_2_" style="clip-path:url(#SVGID_00000156559078761356007050000006154648297577256115_);fill:#FFFFFF;stroke:#636466;stroke-width:0.84;stroke-miterlimit:10;" cx="125" cy="26.8" rx="9.8" ry="8.5"/>
		</g>
	</g>
	<g id="Center_Ring_RED_2_">
		<g>
			<circle id="CENTER_RING_non_Organic_2_" class="st22" cx="125" cy="50" r="26.1"/>
		</g>
	</g>
	<g>
		<g id="Clark_1_">
			<path class="st3" d="M92.5,48.3c-1,0.4-1.3,1.1-1.3,2c0.1,1.7,1.3,2.4,2.6,2.4c1.7-0.1,2.7-1.1,2.7-2.5c0-1.1-0.5-1.6-1.5-2.1
				l0-0.4c0.5,0.1,1.2,0.3,1.6,0.5c0.1,0.3,0.3,1.3,0.3,2c0.1,2.9-1.4,4.1-2.8,4.1c-1.8,0.1-3.2-1.6-3.3-4.1c0-0.9,0.1-1.6,0.2-1.9
				c0.5-0.1,0.9-0.2,1.4-0.2L92.5,48.3z"/>
			<path class="st3" d="M95.8,44.1c0.6,0.1,0.8,0.1,1-0.1c0.1-0.2,0.2-0.4,0.2-0.8c0.1-0.4,0.1-0.9,0-1.2c-0.1-0.2-0.4-0.4-0.8-0.7
				l0.1-0.4c0.3,0.1,1.2,0.5,1.4,0.7l-1.1,5l-0.3-0.1c0.1-0.9,0.1-1-0.9-1.2l-3-0.6c-0.9-0.2-1-0.1-1.2,0.7L91,45.5l0.7-3.2l0.3,0.1
				c-0.1,0.8-0.1,0.9,0.9,1.1L95.8,44.1z"/>
			<path class="st3" d="M99.5,37.1l0.1-0.3c0.1-0.4,0.1-0.5-0.4-0.5c-0.3,0-0.8,0-1.2,0l-0.8,1.7c0.2,0.2,0.5,0.5,0.8,0.8
				c0.3,0.3,0.4,0.4,0.7-0.1l0.1-0.2l0.3,0.1L98,40.9l-0.3-0.1c0.2-0.6,0.2-0.8-0.3-1.4l-3.2-4l0.1-0.5l1.8,0.1
				c1.2,0.1,2.3,0.1,3.3,0.1c0.9,0,1-0.1,1.3-0.6l0.3,0.1l-1.3,2.7L99.5,37.1z M96.9,37.8l0.7-1.4l-2-0.1l0,0L96.9,37.8z"/>
			<path class="st3" d="M101.6,31.6c0.7,0.6,0.8,0.6,1.4,0l0.2,0.2l-2,2.4l-0.2-0.2c0.5-0.7,0.5-0.8-0.3-1.4l-2.4-2
				c-0.7-0.6-0.8-0.6-1.4,0l-0.2-0.2l1.9-2.2c0.6-0.7,1-1.1,1.5-1.3c0.4-0.2,1-0.1,1.3,0.2c0.6,0.5,0.6,1.2,0.3,2
				c0.3,0,1,0.1,1.5,0.2c0.6,0,1.1,0,1.3,0c0.3,0,0.5-0.1,0.7-0.3l0.2,0.2l-0.3,0.3c-0.9,1-1.3,1.1-2,1.1c-0.5,0-1.1-0.1-1.7-0.2
				c-0.3-0.1-0.5,0-0.7,0.3l-0.2,0.2L101.6,31.6z M100.5,30.7l0.2-0.2c0.3-0.3,0.4-0.6,0.5-0.9c0.1-0.5-0.2-0.9-0.5-1.2
				c-0.7-0.6-1.4-0.2-1.8,0.3c-0.3,0.4-0.3,0.4,0,0.7L100.5,30.7z"/>
			<path class="st3" d="M106.9,26.6c0.5,0.8,0.7,0.8,1.4,0.3l0.2,0.2l-2.5,1.8l-0.2-0.2c0.6-0.5,0.6-0.6,0.1-1.4l-1.8-2.5
				c-0.6-0.8-0.7-0.8-1.4-0.4l-0.2-0.2l2.5-1.8l0.2,0.2c-0.6,0.5-0.6,0.6-0.1,1.4l0.9,1.2c0.2-0.6,0.6-2.4,0.6-3
				c0.1-0.4,0-0.5-0.3-0.4l-0.4,0.2l-0.2-0.2l2.2-1.6l0.2,0.2c-0.5,0.4-0.6,0.6-0.9,1.4c-0.2,0.8-0.5,1.6-0.6,2.3
				c1.1,0.2,2.3,0.5,3.4,0.6c0.7,0.1,0.9,0.1,1.3-0.1l0.2,0.2l-1.7,1.2c-0.6-0.2-2.5-0.5-3.8-0.8l0,0L106.9,26.6z"/>
			<path class="st3" d="M114.6,17.6l0.1,0.3c-0.7,0.3-0.8,0.4-0.5,1.3l0.5,1.8c0.4,1.3,1.2,1.9,2.3,1.6c1.2-0.4,1.5-1.3,1.1-2.8
				l-0.2-0.6c-0.3-0.9-0.5-1.4-0.6-1.6c-0.1-0.3-0.4-0.3-1.1-0.1l-0.1-0.3l2.6-0.8l0.1,0.3c-0.5,0.2-0.7,0.4-0.7,0.7
				c0,0.3,0.1,0.8,0.4,1.7l0.2,0.6c0.3,0.8,0.3,1.6-0.1,2.3c-0.3,0.5-1,1-1.7,1.2c-0.7,0.2-1.4,0.3-2,0.1c-0.7-0.2-1.1-0.7-1.4-1.7
				l-0.6-1.9c-0.3-0.9-0.4-1-1.2-0.8l-0.1-0.3L114.6,17.6z"/>
			<path class="st3" d="M127,21.8l-0.7,0l-4.4-4.2h0l0.1,1.9c0,0.9,0.1,1.4,0.2,1.7c0.1,0.3,0.3,0.4,1,0.4l0,0.3l-2.7,0.1l0-0.3
				c0.5,0,0.8-0.2,0.8-0.5c0-0.3,0.1-0.8,0.1-1.7l-0.1-1.8c0-0.6,0-0.8-0.2-1c-0.2-0.2-0.5-0.3-0.9-0.3l0-0.3l1.9-0.1l4.3,3.9h0
				l-0.1-1.6c0-0.9-0.1-1.4-0.2-1.7c-0.1-0.3-0.3-0.4-1-0.4l0-0.3l2.7-0.1l0,0.3c-0.5,0-0.8,0.2-0.8,0.5c0,0.3-0.1,0.8-0.1,1.7
				L127,21.8z"/>
			<path class="st3" d="M131.1,21c-0.2,1-0.1,1,0.7,1.2l-0.1,0.3l-3.1-0.6l0.1-0.3c0.8,0.1,0.9,0,1.1-0.9l0.6-3c0.2-1,0.1-1-0.7-1.2
				l0.1-0.3l3.1,0.6l-0.1,0.3c-0.8-0.1-0.9,0-1.1,0.9L131.1,21z"/>
			<path class="st3" d="M134.8,23.6c-0.1-1.8-0.3-4.2-0.3-5.1c-0.1-0.9-0.2-1-0.7-1.3l0.1-0.3l2.9,1.1l-0.1,0.3l-0.4-0.1
				c-0.4-0.1-0.4,0-0.4,0.4c0,0.5,0.2,2.5,0.3,3.8c0.6-0.6,2.1-2.2,2.4-2.5c0.4-0.5,0.4-0.6,0-0.8l-0.3-0.1l0.1-0.3l2.4,0.9
				l-0.1,0.3c-0.6-0.2-0.8-0.2-1.5,0.5c-0.1,0.1-2.3,2.1-3.7,3.5L134.8,23.6z"/>
			<path class="st3" d="M141.2,21.5c0.5-0.8,0.5-0.9-0.1-1.4l0.2-0.2l4.2,2.7c-0.1,0.1-0.4,0.7-0.7,1.2l-0.3-0.2
				c0.1-0.4,0.2-0.7,0.1-0.9c-0.1-0.2-0.3-0.5-0.9-0.8l-0.4-0.2c-0.3-0.2-0.4-0.2-0.5,0l-1,1.5l0.7,0.4c0.8,0.5,0.8,0.5,1.3-0.1
				l0.3,0.2l-1.1,1.7l-0.3-0.2c0.3-0.7,0.3-0.7-0.5-1.2l-0.7-0.4l-0.8,1.2c-0.4,0.6-0.4,0.7-0.3,0.9c0.1,0.2,0.4,0.3,0.7,0.6
				c0.4,0.3,0.9,0.5,1.2,0.4c0.2,0,0.6-0.2,0.9-0.5l0.3,0.3c-0.2,0.3-0.9,0.9-1.1,1.1l-4.5-2.9l0.2-0.2c0.8,0.4,0.9,0.4,1.4-0.4
				L141.2,21.5z"/>
			<path class="st3" d="M145.8,28.9c-0.7,0.7-0.7,0.8-0.2,1.4l-0.2,0.2l-2.2-2.3l0.2-0.2c0.6,0.6,0.7,0.6,1.4-0.1l2.2-2.1
				c0.7-0.7,0.7-0.8,0.2-1.4l0.2-0.2l2,2.1c0.6,0.7,1,1.1,1.1,1.6c0.1,0.5,0,1-0.3,1.3c-0.6,0.5-1.3,0.5-2.1,0.1
				c-0.1,0.3-0.2,1-0.3,1.5c-0.1,0.6-0.1,1-0.1,1.3c0,0.3,0,0.5,0.2,0.7l-0.2,0.2l-0.3-0.3c-0.9-1-1-1.4-0.9-2.1
				c0.1-0.5,0.2-1.1,0.4-1.6c0.1-0.3,0-0.5-0.2-0.7l-0.2-0.2L145.8,28.9z M146.8,27.8l0.2,0.2c0.3,0.3,0.6,0.5,0.9,0.6
				c0.5,0.1,0.9-0.1,1.2-0.4c0.6-0.6,0.4-1.4-0.1-1.8c-0.4-0.4-0.4-0.4-0.7-0.1L146.8,27.8z"/>
			<path class="st3" d="M149.6,32.7c-0.3,0.4-0.8,1.4-0.3,2.4c0.4,0.6,1,0.7,1.4,0.4c0.5-0.3,0.6-0.8,0.4-1.7l0-0.2
				c-0.2-0.9-0.1-1.9,0.6-2.3c0.8-0.5,2-0.2,2.8,1.1c0.2,0.3,0.3,0.6,0.4,0.9c0.1,0.2,0.1,0.3,0.1,0.5c-0.3,0.2-0.6,0.5-1,0.9
				l-0.3-0.3c0.3-0.5,0.7-1.1,0.2-1.9c-0.3-0.6-0.9-0.7-1.3-0.4c-0.4,0.2-0.5,0.7-0.3,1.6l0.1,0.4c0.2,0.9,0.2,1.8-0.6,2.3
				c-0.9,0.6-2.1,0.1-2.9-1.2c-0.2-0.3-0.4-0.7-0.4-1c-0.1-0.3-0.1-0.5-0.2-0.7c0.2-0.2,0.6-0.6,1-1L149.6,32.7z"/>
			<path class="st3" d="M152.8,39.7c-0.9,0.4-0.9,0.5-0.7,1.2l-0.3,0.1l-1.2-2.9l0.3-0.1c0.3,0.7,0.4,0.8,1.3,0.4l2.9-1.1
				c0.9-0.4,0.9-0.5,0.7-1.2l0.3-0.1l1.2,2.9l-0.3,0.1c-0.3-0.7-0.4-0.8-1.3-0.4L152.8,39.7z"/>
			<path class="st3" d="M154.2,45c-1,0.2-1,0.3-0.9,1.2l-0.3,0.1l-0.7-3.4l0.3-0.1c0.2,0.9,0.3,1,1.3,0.8l4-0.8l-0.1-0.3
				c-0.2-0.9-0.3-1.1-0.5-1.3c-0.2-0.1-0.4-0.2-0.9-0.2l-0.1-0.4c0.6-0.1,1.3-0.1,1.7-0.2l0,0.2c-0.2,0.2-0.2,0.3-0.1,0.6l0.8,4.3
				c0.1,0.3,0.1,0.4,0.3,0.5l0,0.2c-0.4,0.1-1,0.3-1.6,0.4l-0.1-0.4c0.5-0.2,0.7-0.4,0.8-0.6c0.1-0.2,0.1-0.6,0-1.2l-0.1-0.4
				L154.2,45z"/>
			<path class="st3" d="M154.5,51.5c-1,0-1,0.1-1.1,1l-0.3,0l0.1-3.4l0.3,0c0,0.9,0.1,1,1.1,1l0.8,0c0.2,0,0.3,0,0.5-0.1
				c0.5-0.3,1.1-0.7,2.1-1.3c0.7-0.4,0.7-0.5,0.8-1.1l0.3,0l-0.1,3l-0.3,0l0-0.4c0-0.3-0.1-0.3-0.4-0.1c-0.7,0.4-1.4,0.8-2.1,1.2
				c0.5,0.3,1.4,0.9,2,1.2c0.3,0.2,0.4,0.1,0.5-0.2l0-0.4l0.3,0l-0.1,2.5l-0.3,0c0-0.7-0.1-0.8-0.7-1.2c-0.5-0.4-1-0.8-1.7-1.3
				c-0.3-0.2-0.3-0.2-0.7-0.2L154.5,51.5z"/>
		</g>
		<g id="Roman_Numbers_1_">
			<path id="M_1_" class="st23" d="M102.2,68.7l-0.2,0.1c-0.4-0.6-0.5-0.6-1.2-0.1l-2.2,1.6c-0.7,0.5-0.7,0.5-0.4,1.2L98,71.6
				l-1.5-2.3l0.2-0.1c0.4,0.6,0.5,0.6,1.2,0.1l2.5-1.6l0,0l-4.5,0.5l-0.2-0.3l2.2-3.8l0,0l-1.7,1c-0.6,0.3-0.9,0.6-1.1,0.8
				c-0.2,0.2-0.2,0.4,0.1,0.9l-0.2,0.1L93.7,65l0.2-0.1c0.3,0.4,0.4,0.5,0.7,0.4c0.2-0.1,0.7-0.3,1.3-0.6l1.4-0.8
				c0.9-0.5,1-0.6,0.6-1.3l0.2-0.1l1,1.6l-1.9,3.5l4-0.4L102.2,68.7z"/>
			<path id="M_moved_2_" class="st3" d="M102.9,68.4l-0.2,0.1c-0.4-0.6-0.5-0.6-1.2-0.1L99.3,70c-0.7,0.5-0.7,0.5-0.4,1.2l-0.2,0.1
				L97.3,69l0.2-0.1c0.4,0.5,0.5,0.6,1.2,0.1l2.4-1.6l0,0l-4.4,0.5l-0.2-0.3l2.1-3.7l0,0l-1.6,1c-0.6,0.3-0.9,0.6-1.1,0.7
				c-0.2,0.2-0.2,0.4,0.1,0.9l-0.2,0.1l-1.2-1.8l0.2-0.1c0.3,0.4,0.4,0.5,0.7,0.3c0.2-0.1,0.7-0.3,1.3-0.6l1.4-0.8
				c0.9-0.5,0.9-0.6,0.6-1.3l0.2-0.1l1,1.6L98,67.2l3.9-0.4L102.9,68.4z"/>
			<path id="M_distorted_1_" class="st23" d="M102.2,68.7l-0.2,0.1c-0.4-0.6-0.5-0.6-1.2-0.1l-2.2,1.6c-0.7,0.5-0.7,0.5-0.4,1.2
				L98,71.6l-1.5-2.3l0.2-0.1c0.4,0.6,0.5,0.6,1.2,0.1l2.5-1.6l0,0L96,67.9l-0.2-0.3l2.2-3.8L97.8,64l-1.5,0.8
				c-0.6,0.3-0.9,0.6-1.1,0.8c-0.2,0.2-0.2,0.4,0.1,0.9l-0.2,0.1l-1.2-1.9l0.2-0.1c0.3,0.4,0.4,0.5,0.7,0.4c0.2-0.1,0.7-0.3,1.3-0.6
				l1.4-0.8c0.9-0.5,1-0.6,0.6-1.3l0.2-0.1l1,1.6l-2.1,3.7l4-0.4L102.2,68.7z"/>
			<path id="D_1_" class="st23" d="M104.8,71.2c0.8,0.8,1.3,1.6,1.4,2.4c0.1,0.6-0.1,1.2-0.6,1.7c-1.4,1.4-3.2,0.7-4.8-0.9l-1.7-1.7
				l0.2-0.2c0.6,0.5,0.6,0.5,1.2-0.1l1.9-1.9c0.6-0.6,0.6-0.7,0.2-1.2l0.2-0.2L104.8,71.2z M101.4,73.3c-0.5,0.5-0.6,0.7-0.1,1.2
				c1,1,2.2,0.9,3.1,0c1.2-1.2,0.9-2.3-0.1-3.2c-0.2-0.2-0.4-0.3-0.4-0.3c-0.1,0-0.2,0.1-0.3,0.2L101.4,73.3z"/>
			<path id="D_rotated_2_" class="st3" d="M105.3,70.9c0.7,0.8,1.2,1.6,1.3,2.4c0,0.6-0.1,1.2-0.6,1.7c-1.4,1.3-3.2,0.6-4.7-1
				l-1.6-1.7l0.2-0.2c0.5,0.5,0.6,0.5,1.2,0l2-1.8c0.6-0.6,0.6-0.7,0.2-1.2l0.2-0.2L105.3,70.9z M102,72.9c-0.5,0.5-0.6,0.7-0.1,1.2
				c0.9,1,2.1,1,3.1,0.1c1.2-1.1,0.9-2.2,0-3.2c-0.2-0.2-0.3-0.3-0.4-0.4c-0.1,0-0.2,0.1-0.3,0.2L102,72.9z"/>
			<path id="C_1_" class="st23" d="M111.4,77.7c0.2-0.9-0.2-1.5-0.9-1.9c-1.2-0.7-2.4-0.2-3,0.8c-0.7,1.3-0.5,2.5,0.6,3.2
				c0.8,0.5,1.4,0.4,2.3-0.1l0.3,0.2c-0.3,0.3-0.8,0.7-1.1,0.9c-0.3-0.1-1.1-0.4-1.6-0.7c-2.2-1.3-2.3-3-1.7-4
				c0.8-1.3,2.7-1.6,4.6-0.5c0.7,0.4,1.2,0.9,1.4,1c-0.2,0.4-0.3,0.7-0.5,1.2L111.4,77.7z"/>
			<path id="C_rotated_2_" class="st3" d="M111.7,77.1c0.2-0.9-0.2-1.4-0.9-1.8c-1.2-0.7-2.3-0.1-2.9,0.9c-0.7,1.3-0.4,2.5,0.7,3.1
				c0.8,0.4,1.4,0.3,2.3-0.2l0.3,0.2c-0.3,0.3-0.8,0.7-1.1,0.9c-0.3-0.1-1.1-0.3-1.6-0.6c-2.2-1.2-2.4-2.8-1.8-3.9
				c0.7-1.3,2.6-1.7,4.5-0.6c0.7,0.4,1.2,0.8,1.4,1c-0.1,0.4-0.3,0.7-0.5,1.2L111.7,77.1z"/>
			<path id="C_2_1_" class="st23" d="M117.2,79.9c0-1-0.4-1.4-1.2-1.7c-1.4-0.5-2.4,0.3-2.8,1.4c-0.5,1.4,0,2.6,1.2,3
				c0.9,0.3,1.5,0.1,2.2-0.6l0.3,0.2c-0.3,0.4-0.7,0.9-0.9,1.1c-0.3,0-1.1-0.2-1.7-0.4c-2.4-0.8-2.9-2.4-2.5-3.6
				c0.5-1.5,2.3-2.1,4.4-1.4c0.8,0.3,1.3,0.6,1.5,0.8c-0.1,0.4-0.2,0.8-0.3,1.3L117.2,79.9z"/>
			<path id="C_2_tweeked_2_" class="st3" d="M117.4,79.2c0-1-0.5-1.4-1.2-1.6c-1.4-0.4-2.3,0.4-2.6,1.4c-0.4,1.4,0.1,2.5,1.3,2.9
				c0.9,0.3,1.5,0,2.2-0.6l0.3,0.2c-0.2,0.4-0.6,0.9-0.8,1.1c-0.3,0-1.1-0.1-1.7-0.3c-2.4-0.7-2.9-2.3-2.5-3.5
				c0.5-1.5,2.2-2.1,4.3-1.5c0.8,0.2,1.3,0.6,1.5,0.7c-0.1,0.4-0.1,0.8-0.2,1.2L117.4,79.2z"/>
			<path class="st3" d="M123.6,80.2c-0.2-0.9-0.7-1.3-1.5-1.4c-1.4-0.2-2.2,0.8-2.3,1.9c-0.2,1.4,0.5,2.5,1.8,2.6
				c0.9,0.1,1.4-0.2,2-1l0.3,0.1c-0.2,0.4-0.5,1-0.6,1.3c-0.3,0-1.1,0.1-1.7,0c-2.5-0.3-3.3-1.7-3.1-3c0.2-1.5,1.8-2.5,3.9-2.2
				c0.8,0.1,1.4,0.3,1.6,0.4c0,0.4,0,0.8,0,1.3L123.6,80.2z"/>
			<path class="st3" d="M126.8,82.5c0,0.6,0.1,0.7,0.3,0.8c0.2,0,0.4,0,0.7,0c0.4,0,0.8-0.1,1-0.3c0.1-0.2,0.3-0.4,0.4-0.8l0.3,0
				c0,0.3-0.2,1.1-0.2,1.3l-4.4,0.3l0-0.2c0.8-0.1,0.8-0.1,0.8-1l-0.2-2.7c0-0.8-0.1-0.9-0.8-0.9l0-0.2l2.8-0.2l0,0.2
				c-0.7,0.1-0.8,0.1-0.7,1L126.8,82.5z"/>
			<path class="st3" d="M133.5,82.5l0.2-0.1c0.3-0.1,0.3-0.2,0.1-0.4c-0.2-0.1-0.5-0.4-1.4-1.1c-0.3,0.6-0.5,1.4-0.6,1.6
				c-0.1,0.2-0.1,0.4,0.2,0.3l0.3-0.1l0.1,0.2l-2.3,0.6l-0.1-0.2c0.5-0.2,0.7-0.3,0.9-0.5c0.1-0.2,0.7-1.4,1.1-2.2l-1.7-1.4
				c-0.5-0.4-0.6-0.4-1.2-0.3l-0.1-0.2l2.6-0.7l0.1,0.2l-0.3,0.1c-0.3,0.1-0.3,0.1-0.1,0.3c0.1,0.1,0.7,0.6,1.2,1
				c0.2-0.4,0.4-0.9,0.6-1.4c0.1-0.2,0.1-0.3-0.2-0.3l-0.3,0l-0.1-0.2l2.2-0.5l0.1,0.2c-0.6,0.2-0.7,0.3-1,0.8
				c-0.2,0.4-0.6,1-0.9,1.6l2.1,1.6c0.5,0.4,0.6,0.4,1.2,0.3l0.1,0.2l-2.8,0.7L133.5,82.5z"/>
			<path class="st3" d="M139.8,80.1L140,80c0.3-0.2,0.3-0.3,0-0.4c-0.2-0.1-0.5-0.3-1.6-0.8c-0.1,0.6-0.2,1.4-0.3,1.7
				c0,0.2,0,0.4,0.3,0.3l0.3-0.1l0.1,0.2l-2.1,1l-0.1-0.2c0.4-0.3,0.6-0.4,0.7-0.7c0.1-0.3,0.4-1.5,0.6-2.4l-2-1
				c-0.5-0.3-0.6-0.3-1.2-0.1l-0.1-0.2l2.5-1.2l0.1,0.2l-0.3,0.2c-0.3,0.2-0.3,0.2-0.1,0.3c0.1,0.1,0.8,0.5,1.4,0.7
				c0.1-0.4,0.2-1,0.3-1.5c0-0.3,0-0.3-0.3-0.2l-0.3,0.1l-0.1-0.2l2-1l0.1,0.2c-0.5,0.3-0.6,0.4-0.8,0.9c-0.1,0.4-0.4,1.1-0.5,1.8
				l2.4,1.2c0.6,0.3,0.7,0.3,1.3,0l0.1,0.2l-2.6,1.2L139.8,80.1z"/>
			<path class="st3" d="M145.5,76.6l0.2-0.2c0.3-0.2,0.2-0.3-0.1-0.4c-0.2-0.1-0.6-0.2-1.7-0.5c0,0.7,0.1,1.5,0.1,1.7
				c0,0.2,0,0.4,0.3,0.2l0.3-0.2l0.1,0.2l-1.9,1.4l-0.1-0.2c0.4-0.3,0.5-0.5,0.6-0.8c0-0.3,0.1-1.6,0.2-2.4l-2.1-0.6
				c-0.6-0.2-0.7-0.1-1.2,0.2l-0.1-0.2l2.2-1.6l0.1,0.2l-0.2,0.2c-0.2,0.2-0.2,0.3,0,0.3c0.1,0,0.9,0.3,1.5,0.4c0-0.4,0-1,0-1.5
				c0-0.3,0-0.3-0.3-0.1l-0.3,0.2l-0.1-0.2l1.8-1.3l0.1,0.2c-0.5,0.4-0.5,0.5-0.6,1.1c-0.1,0.4-0.1,1.1-0.2,1.8l2.5,0.7
				c0.6,0.2,0.7,0.1,1.3-0.2L148,75l-2.3,1.7L145.5,76.6z"/>
			<path class="st3" d="M150.2,72.6c-1.5-0.4-3.5-1-4.2-1.3c-0.7-0.2-0.9-0.1-1.3,0.2l-0.2-0.2l1.8-2l0.2,0.2l-0.2,0.3
				c-0.2,0.3-0.2,0.4,0.2,0.5c0.4,0.2,2.1,0.6,3.2,0.9c-0.3-0.7-1.1-2.4-1.3-2.7c-0.3-0.5-0.4-0.5-0.7-0.2l-0.2,0.2l-0.2-0.2
				l1.4-1.6l0.2,0.2c-0.3,0.5-0.4,0.6-0.1,1.4c0,0.1,1,2.5,1.7,4.1L150.2,72.6z"/>
			<path class="st3" d="M152.9,67c0.7,0.4,0.8,0.4,1.2-0.1l0.2,0.1l-1.5,2.3l-0.2-0.1c0.3-0.6,0.3-0.7-0.4-1.1l-2.2-1.4
				c-0.7-0.4-0.8-0.4-1.2,0.1l-0.2-0.1l1.5-2.3l0.2,0.1c-0.3,0.6-0.3,0.7,0.4,1.1L152.9,67z"/>
			<path class="st3" d="M154.6,63.8c0.7,0.4,0.8,0.3,1.2-0.3l0.2,0.1l-1.2,2.4l-0.2-0.1c0.3-0.6,0.2-0.7-0.5-1.1l-2.4-1.2
				c-0.7-0.4-0.8-0.3-1.2,0.3l-0.2-0.1l1.2-2.4l0.2,0.1c-0.3,0.6-0.2,0.7,0.5,1.1L154.6,63.8z"/>
		</g>
		<g id="Diamonds_1_">
			<path class="st3" d="M95.7,60.8c-0.2-0.3-0.4-0.5-0.6-0.6c-0.2-0.1-0.3-0.3-0.4-0.3c-0.1-0.1-0.3-0.1-0.5-0.2
				c-0.2,0-0.5-0.1-0.8-0.1l0-0.1c0.3-0.2,0.5-0.4,0.6-0.6c0.1-0.2,0.3-0.3,0.3-0.4c0.1-0.1,0.1-0.3,0.2-0.5c0-0.2,0.1-0.5,0.1-0.8
				l0.1,0c0.2,0.3,0.4,0.5,0.6,0.6c0.2,0.1,0.3,0.3,0.4,0.3c0.1,0.1,0.3,0.1,0.5,0.2c0.2,0,0.5,0.1,0.8,0.1l0,0.1
				c-0.3,0.2-0.5,0.4-0.6,0.6c-0.1,0.2-0.3,0.3-0.3,0.4C96,59.6,96,59.8,95.9,60c0,0.2-0.1,0.5-0.1,0.8L95.7,60.8z"/>
			<path class="st3" d="M155.9,56.6c0,0.3,0.1,0.6,0.1,0.8c0,0.2,0.1,0.4,0.2,0.5c0.1,0.1,0.2,0.3,0.3,0.4c0.1,0.2,0.4,0.3,0.6,0.6
				l0,0.1c-0.3,0-0.6,0.1-0.8,0.1s-0.4,0.1-0.5,0.2c-0.1,0.1-0.3,0.2-0.4,0.3c-0.2,0.1-0.3,0.4-0.5,0.6l-0.1,0
				c0-0.3-0.1-0.6-0.1-0.8c0-0.2-0.1-0.4-0.2-0.5c-0.1-0.1-0.2-0.3-0.3-0.4c-0.1-0.2-0.4-0.3-0.6-0.6l0-0.1c0.3,0,0.6-0.1,0.8-0.1
				c0.2,0,0.4-0.1,0.5-0.2c0.1-0.1,0.3-0.2,0.4-0.3c0.2-0.1,0.3-0.4,0.5-0.6L155.9,56.6z"/>
		</g>
	</g>
</g>
</svg>
